<svg fill="#ffffff" viewBox="0 0 32 32" id="icon" xmlns="http://www.w3.org/2000/svg"><g id="SVGRepo_bgCarrier" stroke-width="0"></g>
    <g id="SVGRepo_tracerCarrier" stroke-linecap="round" stroke-linejoin="round"></g>
    <g id="SVGRepo_iconCarrier"><defs><style>.cls-1{fill:none;}</style></defs><title>closed-caption--filled</title>
        <path d="M28,6H4A2,2,0,0,0,2,8V24a2,2,0,0,0,2,2H28a2,2,0,0,0,2-2V8A2,2,0,0,0,28,6ZM15,13H10v6h5v2H10a2,2,0,0,1-2-2V13a2,2,0,0,1,2-2h5Zm10,0H20v6h5v2H20a2,2,0,0,1-2-2V13a2,2,0,0,1,2-2h5Z"></path>
        <rect id="_Transparent_Rectangle_" data-name="<Transparent Rectangle>" className="cls-1" width="32" height="32"></rect></g>
</svg>